<?xml version="1.0" standalone="no"?>
<!DOCTYPE svg PUBLIC "-//W3C//DTD SVG 20010904//EN"
 "http://www.w3.org/TR/2001/REC-SVG-20010904/DTD/svg10.dtd">
<svg version="1.0" xmlns="http://www.w3.org/2000/svg"
 width="256.000000pt" height="251.000000pt" viewBox="0 0 256.000000 251.000000"
 preserveAspectRatio="xMidYMid meet">
<metadata>
Created by potrace 1.15, written by Peter Selinger 2001-2017
</metadata>
<g transform="translate(0.000000,251.000000) scale(0.100000,-0.100000)"
fill="#000000" stroke="none">
<path d="M203 2348 c-174 -172 -196 -198 -191 -231 3 -19 32 5 192 163 103
102 192 193 197 203 8 14 5 17 -17 17 -21 0 -60 -33 -181 -152z"/>
<path d="M303 2248 c-140 -139 -264 -265 -275 -281 -10 -15 -18 -37 -16 -50 3
-18 49 23 292 263 158 157 292 293 297 303 8 14 5 17 -17 17 -22 0 -75 -47
-281 -252z"/>
<path d="M402 2148 c-194 -194 -362 -365 -373 -381 -11 -15 -19 -37 -17 -50 4
-18 67 40 392 363 213 212 392 393 397 403 8 14 5 17 -18 17 -22 0 -89 -62
-381 -352z"/>
<path d="M502 2048 c-249 -249 -462 -465 -473 -481 -11 -15 -19 -37 -17 -50 4
-18 84 57 492 463 268 267 492 493 497 503 8 14 5 17 -18 17 -22 0 -104 -76
-481 -452z"/>
<path d="M602 1948 c-304 -304 -562 -565 -573 -581 -11 -15 -19 -37 -17 -50 3
-19 32 6 195 167 l191 189 -33 -98 -34 -97 -160 -163 c-127 -128 -161 -168
-161 -189 0 -22 3 -25 18 -17 9 5 84 77 167 160 l150 151 64 0 65 0 -232 -233
c-188 -189 -232 -239 -232 -261 0 -22 3 -25 18 -17 22 12 1582 1574 1582 1584
0 4 -12 7 -27 7 -21 0 -71 -44 -250 -222 l-223 -222 0 65 0 64 141 140 c161
160 172 175 133 175 -20 0 -61 -34 -184 -155 -88 -86 -166 -155 -176 -155 -11
-1 -52 -14 -93 -30 l-75 -29 177 177 c97 98 177 181 177 185 0 4 -12 7 -27 7
-23 0 -122 -94 -581 -552z m193 -208 c-131 -131 -241 -237 -243 -235 -2 2 12
37 32 77 75 155 197 279 351 359 42 21 81 39 88 39 6 0 -96 -108 -228 -240z"/>
<path d="M1386 2132 c-228 -227 -390 -379 -419 -396 -35 -20 -47 -32 -42 -44
9 -23 -64 -95 -82 -81 -10 9 -19 0 -40 -37 -17 -30 -170 -192 -395 -419 -202
-203 -375 -380 -384 -393 -8 -12 -14 -32 -12 -45 3 -19 28 1 165 136 l161 159
12 -52 12 -51 -176 -178 c-140 -142 -176 -184 -176 -205 0 -22 3 -25 18 -17 9
5 93 86 187 180 l170 171 22 -43 21 -42 -209 -211 c-168 -169 -209 -216 -209
-238 0 -22 3 -25 18 -17 9 5 109 102 221 215 l204 204 27 -36 28 -37 -249
-251 c-200 -202 -249 -256 -249 -277 0 -15 3 -27 7 -27 4 0 123 116 265 257
l258 257 29 -34 30 -35 -265 -265 c-145 -146 -264 -269 -264 -273 0 -4 12 -7
27 -7 21 0 76 50 284 256 l257 256 36 -28 36 -29 -220 -220 c-121 -122 -220
-224 -220 -228 0 -4 12 -7 27 -7 21 0 69 43 238 210 116 116 215 210 219 210
5 0 24 -10 43 -21 l35 -22 -181 -181 c-100 -100 -181 -185 -181 -189 0 -4 12
-7 26 -7 21 0 64 37 203 175 98 96 182 175 188 175 6 0 27 -7 48 -16 l38 -15
-152 -153 c-83 -84 -151 -156 -151 -159 0 -4 12 -7 26 -7 21 0 60 34 179 150
l152 151 42 -7 41 -7 0 49 0 49 144 144 c137 137 146 144 215 167 39 13 91 36
114 50 25 15 -113 -129 -335 -353 -208 -208 -378 -382 -378 -386 0 -4 12 -7
27 -7 23 0 159 132 826 798 439 438 807 809 818 825 11 15 19 37 17 50 -4 18
-67 -41 -397 -368 -284 -281 -386 -377 -368 -345 14 25 35 74 47 110 20 61 31
75 163 208 l142 142 53 0 c58 0 55 -5 36 61 -5 17 25 52 160 189 130 131 166
173 166 194 0 14 -3 26 -7 26 -4 0 -82 -74 -173 -166 l-167 -165 -18 46 -17
47 191 192 c151 153 191 199 191 220 0 14 -3 26 -7 26 -4 0 -95 -88 -203 -195
l-196 -195 -23 41 -23 41 226 227 c181 183 226 233 226 254 0 15 -3 27 -7 27
-4 0 -112 -105 -241 -232 l-233 -233 -29 35 -29 35 270 271 c217 219 269 276
269 297 0 15 -3 27 -7 27 -4 0 -134 -126 -288 -280 l-281 -280 -32 33 -32 33
236 234 c129 129 240 243 245 253 8 14 5 17 -17 17 -22 0 -73 -45 -265 -236
l-237 -237 -36 23 c-20 12 -36 25 -36 28 0 4 86 93 191 197 104 105 195 198
200 208 8 14 5 17 -17 17 -22 0 -67 -39 -225 -197 l-198 -196 -41 18 c-22 10
-40 21 -40 24 0 3 70 76 156 161 85 85 160 163 165 173 8 14 5 17 -17 17 -21
0 -62 -35 -194 -165 l-167 -166 -46 13 c-26 7 -47 15 -47 18 0 3 59 64 131
135 72 72 135 138 140 148 8 14 5 17 -17 17 -23 0 -93 -65 -398 -368z m-13
-214 c-77 -77 -92 -88 -123 -88 -19 0 -53 -5 -74 -10 -38 -8 -33 -2 120 151
l159 159 3 -62 3 -62 -88 -88z m191 56 l48 -17 -74 -74 -73 -74 -45 6 c-25 4
-49 9 -54 12 -6 4 140 163 149 163 1 0 23 -7 49 -16z m130 -65 c20 -12 36 -24
36 -27 0 -4 -29 -36 -66 -73 l-65 -66 -44 21 -43 21 71 73 c39 39 72 72 74 72
1 0 18 -9 37 -21z m142 -111 c4 -6 -235 -252 -542 -559 l-548 -549 -33 32 -33
32 67 68 c37 38 73 66 79 64 14 -5 147 128 137 137 -12 12 529 547 552 547 26
0 139 113 132 131 -2 8 24 43 61 81 l65 67 28 -20 c16 -11 31 -25 35 -31z m94
-118 c0 -3 -31 -36 -68 -73 l-69 -68 -25 38 -26 38 66 68 67 68 28 -33 c15
-18 27 -35 27 -38z m-835 -240 c-126 -126 -201 -195 -203 -185 -2 8 2 41 8 72
12 55 18 64 127 175 121 122 142 135 228 137 l40 1 -200 -200z m324 179 c17
-6 31 -14 31 -18 0 -3 -117 -123 -259 -265 -279 -278 -266 -270 -285 -192 -7
28 5 41 221 258 125 125 235 228 244 228 9 0 30 -5 48 -11z m566 -30 l18 -40
-73 -74 c-41 -41 -77 -71 -81 -67 -4 4 -12 24 -19 46 l-12 38 68 69 c38 38 71
69 75 69 3 0 14 -18 24 -41z m51 -134 c4 -23 12 -35 22 -35 10 0 -25 -42 -83
-100 l-100 -101 -7 58 -6 58 76 78 c42 42 80 77 84 77 4 0 10 -16 14 -35z
m-400 -29 l16 -29 -258 -258 c-255 -255 -258 -258 -283 -244 -14 8 -33 19 -41
24 -12 9 38 63 260 285 188 189 277 272 282 263 5 -7 16 -25 24 -41z m-928
-111 l-10 -70 -81 -82 -82 -83 -65 0 -65 0 155 155 c85 85 155 153 156 152 1
-1 -3 -33 -8 -72z m971 -55 c1 -33 -12 -48 -187 -223 l-188 -188 -58 7 -58 7
239 239 c257 257 249 253 252 158z m-1022 -257 c-39 -40 -75 -73 -78 -73 -4 0
-14 19 -22 43 l-15 42 81 83 82 82 12 -52 12 -53 -72 -72z m975 63 c-27 -49
-28 -56 -14 -70 15 -14 13 -20 -23 -56 -36 -37 -40 -39 -56 -24 -17 15 -21 15
-51 -4 -99 -62 -91 -41 37 87 71 72 131 128 133 126 2 -2 -9 -28 -26 -59z
m-910 -199 l-70 -69 -26 38 -26 39 72 72 72 72 23 -41 24 -42 -69 -69z m233
-99 c19 -13 35 -25 35 -28 0 -3 -30 -36 -68 -73 l-67 -67 -38 27 -38 27 68 68
c37 37 69 68 70 68 2 0 19 -10 38 -22z m175 -88 c0 -3 -33 -38 -72 -77 l-73
-72 -44 20 -45 20 73 73 73 73 44 -16 c24 -9 44 -18 44 -21z m90 -115 c-69
-69 -106 -100 -108 -90 -2 8 -16 18 -30 21 -15 4 -31 9 -36 12 -4 2 27 40 70
83 l79 79 65 0 65 0 -105 -105z"/>
<path d="M2340 1285 l-206 -205 -44 0 -45 0 -18 -64 c-18 -62 -22 -66 -235
-279 -206 -205 -220 -216 -274 -232 l-58 -16 0 -42 c0 -41 -4 -46 -186 -227
-102 -102 -190 -193 -195 -202 -8 -15 -5 -18 17 -18 21 0 62 35 195 167 130
128 169 162 169 145 0 -25 16 -28 69 -12 31 8 16 -9 -112 -138 -81 -82 -147
-152 -147 -155 0 -4 12 -7 26 -7 21 0 65 37 203 174 142 140 190 181 249 212
160 85 317 242 398 398 30 58 70 105 225 262 149 151 189 197 189 218 0 14 -3
26 -7 26 -4 0 -78 -71 -166 -157 -168 -166 -168 -166 -141 -70 4 12 -1 17 -17
17 -18 0 16 39 154 179 139 140 177 184 177 205 0 14 -3 26 -7 26 -4 0 -100
-92 -213 -205z"/>
<path d="M2021 565 c-293 -292 -537 -538 -542 -547 -8 -15 -5 -18 18 -18 23 0
110 83 526 498 274 273 507 509 518 525 11 15 19 37 17 50 -4 18 -92 -65 -537
-508z"/>
<path d="M2121 465 c-238 -237 -437 -438 -442 -447 -8 -15 -5 -18 18 -18 22 0
96 68 426 397 219 219 407 410 418 426 11 15 19 37 17 50 -4 18 -74 -48 -437
-408z"/>
<path d="M2221 365 c-183 -181 -337 -338 -342 -347 -8 -15 -5 -18 17 -18 23 0
82 54 327 297 164 164 308 310 318 326 11 15 19 37 17 50 -4 18 -57 -31 -337
-308z"/>
<path d="M2321 265 c-128 -126 -237 -238 -242 -247 -8 -15 -5 -18 17 -18 22 0
67 39 226 198 220 217 241 242 236 275 -3 19 -40 -13 -237 -208z"/>
<path d="M2421 165 c-152 -149 -164 -165 -126 -165 19 0 52 25 127 98 117 113
141 144 136 175 -3 19 -22 4 -137 -108z"/>
</g>
</svg>
